<svg width="16" height="16" viewBox="0 0 16 16" fill="none" xmlns="http://www.w3.org/2000/svg">
<path d="M13.354 13.86C13.6606 14.1667 14.134 13.6933 13.8273 13.3933L11.3273 10.8867C12.2045 9.91648 12.6893 8.65461 12.6873 7.34668C12.6873 4.42001 10.3073 2.04001 7.38064 2.04001C4.45397 2.04001 2.07397 4.42001 2.07397 7.34668C2.07397 10.2733 4.45397 12.6533 7.38064 12.6533C8.70064 12.6533 9.92064 12.1667 10.854 11.36L13.354 13.86ZM2.73997 7.34668C2.73997 4.78668 4.82664 2.70668 7.37997 2.70668C9.93997 2.70668 12.02 4.78668 12.02 7.34668C12.02 9.90668 9.93997 11.9867 7.37997 11.9867C4.82664 11.9867 2.73997 9.90668 2.73997 7.34668Z" fill="#828282"/>
</svg>
